# xmcd
#
# Track frame offsets: 
#        150
#        11630
#        22401
#        34851
#        44494
#        55731
#        66825
#        77944
#        88812
#        98775
#        110854
#        122544
#        133907
#        144390
#        155075
#        163588
#        174979
#        186549
#        196331
#        206247
#        217249
#        227092
#        238201
#        247516
#        259736
#
# Disc length: 3602 seconds
#
# Revision: 3
# Processed by: cddbd v1.5.2PL0 Copyright (c) Steve Scherf et al.
# Submitted via: ExactAudioCopy v1.1
#
DISCID=7b0e1019
DTITLE=Maddox Brothers and Rose - 6 Classic Albums Plus_CD2
DYEAR=2013
DGENRE=Country
TTITLE0=Cocquita of Laredo 
TTITLE1=I'll Make Sweet Love to You 
TTITLE2=Wedding Blues 
TTITLE3=No Help Wanted 
TTITLE4=Little Willie's Waltz 
TTITLE5=Empty Mansions 
TTITLE6=On Mexico's Beautiful Shores 
TTITLE7=I'm a Little Red Caboose 
TTITLE8=These Wasted Years 
TTITLE9=A Beautiful Bouquet 
TTITLE10=Marry Me Again 
TTITLE11=You Won't Believe This 
TTITLE12=I Wonder if I Can Lose The Blues 
TTITLE13=I Gotta Go Get my Baby 
TTITLE14=I've Got Four Brothers (to Look After Me) 
TTITLE15=Tall Man 
TTITLE16=Burrito Joe 
TTITLE17=The Death of Rock And Roll 
TTITLE18=Looky There Over There 
TTITLE19=Your Sweet Mean Heart 
TTITLE20=Ugly And Slouchy 
TTITLE21=Stop Whistlin' Wolf
TTITLE22=Let Me Love You 
TTITLE23=Let Those Brown Eyes Smile at Me
TTITLE24=I'll Go Steppin' Too 
EXTD=
EXTT0=
EXTT1=
EXTT2=
EXTT3=
EXTT4=
EXTT5=
EXTT6=
EXTT7=
EXTT8=
EXTT9=
EXTT10=
EXTT11=
EXTT12=
EXTT13=
EXTT14=
EXTT15=
EXTT16=
EXTT17=
EXTT18=
EXTT19=
EXTT20=
EXTT21=
EXTT22=
EXTT23=
EXTT24=
PLAYORDER=
